<?xml version="1.0" standalone="no"?>
<!DOCTYPE svg PUBLIC "-//W3C//DTD SVG 1.1//EN" "http://www.w3.org/Graphics/SVG/1.1/DTD/svg11.dtd">
<!--Generator: Xara Xtreme (www.xara.com), SVG filter version: 1.0.0.13-->
<svg stroke-width="0.501" stroke-linejoin="bevel" fill-rule="evenodd" xmlns:xlink="http://www.w3.org/1999/xlink" xmlns="http://www.w3.org/2000/svg" version="1.1" overflow="visible" width="60pt" height="60pt" viewBox="0 0 60 60">
 <defs>
  <marker id="DefaultArrow2" markerUnits="strokeWidth" viewBox="0 0 1 1" markerWidth="1" markerHeight="1" overflow="visible" orient="auto">
   <!-- REF_ARROW_STRAIGHT (-2) -->
   <g transform="scale(0.0092592592)">
    <!-- 1/108 -->
    <path d="M -9 54 L -9 -54 L 117 0 z"/>
   </g>
  </marker>
  <marker id="DefaultArrow3" markerUnits="strokeWidth" viewBox="0 0 1 1" markerWidth="1" markerHeight="1" overflow="visible" orient="auto">
   <!-- REF_ARROW_ANGLED -->
   <g transform="scale(0.0092592592)">
    <path d="M -27 54 L -9 0 L -27 -54 L 135 0 z"/>
   </g>
  </marker>
  <marker id="DefaultArrow4" markerUnits="strokeWidth" viewBox="0 0 1 1" markerWidth="1" markerHeight="1" overflow="visible" orient="auto">
   <!-- REF_ARROW_ROUNDED -->
   <g transform="scale(0.0092592592)">
    <path d="M -9,0 L -9,-45 C -9,-51.708 2.808,-56.580 9,-54 L 117,-9 C 120.916,-7.369 126.000,-4.242 126,0 C 126,4.242 120.916,7.369 117,9 L 9,54 C 2.808,56.580 -9,51.708 -9,45 z"/>
   </g>
  </marker>
  <marker id="DefaultArrow5" markerUnits="strokeWidth" viewBox="0 0 1 1" markerWidth="1" markerHeight="1" overflow="visible" orient="auto">
   <!-- REF_ARROW_SPOT -->
   <g transform="scale(0.0092592592)">
    <path d="M -54, 0 C -54,29.807 -29.807,54 0,54 C 29.807,54 54,29.807 54,0 C 54,-29.807 29.807,-54 0,-54 C -29.807,-54 -54,-29.807 -54,0 z"/>
   </g>
  </marker>
  <marker id="DefaultArrow6" markerUnits="strokeWidth" viewBox="0 0 1 1" markerWidth="1" markerHeight="1" overflow="visible" orient="auto">
   <!-- REF_ARROW_DIAMOND -->
   <g transform="scale(0.0092592592)">
    <path d="M -63,0 L 0,63 L 63,0 L 0,-63 z"/>
   </g>
  </marker>
  <marker id="DefaultArrow7" markerUnits="strokeWidth" viewBox="0 0 1 1" markerWidth="1" markerHeight="1" overflow="visible" orient="auto">
   <!-- REF_ARROW_FEATHER -->
   <g transform="scale(0.0092592592)">
    <path d="M 18,-54 L 108,-54 L 63,0 L 108,54 L 18, 54 L -36,0 z"/>
   </g>
  </marker>
  <marker id="DefaultArrow8" markerUnits="strokeWidth" viewBox="0 0 1 1" markerWidth="1" markerHeight="1" overflow="visible" orient="auto">
   <!-- REF_ARROW_FEATHER2 -->
   <g transform="scale(0.0092592592)">
    <path d="M -36,0 L 18,-54 L 54,-54 L 18,-18 L 27,-18 L 63,-54 L 99,-54 L 63,-18 L 72,-18 L 108,-54 L 144,-54 L 90,0 L 144,54 L 108,54 L 72,18 L 63,18 L 99,54 L 63,54 L 27,18 L 18,18 L 54,54 L 18,54 z"/>
   </g>
  </marker>
  <marker id="DefaultArrow9" markerUnits="strokeWidth" viewBox="0 0 1 1" markerWidth="1" markerHeight="1" overflow="visible" orient="auto">
   <!-- REF_ARROW_HOLLOWDIAMOND -->
   <g transform="scale(0.0092592592)">
    <path d="M 0,45 L -45,0 L 0, -45 L 45, 0 z M 0, 63 L-63, 0 L 0, -63 L 63, 0 z"/>
   </g>
  </marker>
  <filter id="StainedFilter">
   <feBlend mode="multiply" in2="BackgroundImage" in="SourceGraphic" result="blend"/>
   <feComposite in="blend" in2="SourceAlpha" operator="in" result="comp"/>
  </filter>
  <filter id="BleachFilter">
   <feBlend mode="screen" in2="BackgroundImage" in="SourceGraphic" result="blend"/>
   <feComposite in="blend" in2="SourceAlpha" operator="in" result="comp"/>
  </filter>
  <filter id="InvertTransparencyBitmapFilter">
   <feComponentTransfer>
    <feFuncR type="gamma" amplitude="1.055" exponent=".416666666" offset="-0.055"/>
    <feFuncG type="gamma" amplitude="1.055" exponent=".416666666" offset="-0.055"/>
    <feFuncB type="gamma" amplitude="1.055" exponent=".416666666" offset="-0.055"/>
   </feComponentTransfer>
   <feComponentTransfer>
    <feFuncR type="linear" slope="-1" intercept="1"/>
    <feFuncG type="linear" slope="-1" intercept="1"/>
    <feFuncB type="linear" slope="-1" intercept="1"/>
    <feFuncA type="linear" slope="1" intercept="0"/>
   </feComponentTransfer>
   <feComponentTransfer>
    <feFuncR type="gamma" amplitude="1" exponent="2.4" offset="0"/>
    <feFuncG type="gamma" amplitude="1" exponent="2.4" offset="0"/>
    <feFuncB type="gamma" amplitude="1" exponent="2.4" offset="0"/>
   </feComponentTransfer>
  </filter>
 </defs>
 <g id="Document" fill="none" stroke="black" font-family="Times New Roman" font-size="16" transform="scale(1 -1)">
  <g id="Spread" transform="translate(0 -60)">
   <g id="Layer 1">
    <g id="Group" stroke-linecap="round">
     <g id="Group_1" stroke-linejoin="round" stroke="#f27349" stroke-width="1.5" stroke-miterlimit="79.8403193612775">
      <path d="M 41.25,14.626 C 41.25,16.489 39.737,18.002 37.874,18.002 L 10.124,18.002 C 8.261,18.002 6.748,16.489 6.748,14.626 C 6.748,12.763 8.261,11.25 10.124,11.25 L 37.874,11.25 C 39.737,11.25 41.25,12.763 41.25,14.626 Z" marker-start="none" marker-end="none"/>
      <path d="M 13.5,15.001 L 34.5,15.001" fill="none"/>
      <path d="M 22.5,29.22 L 23.529,34.853 C 23.711,35.851 24.875,36.752 25.875,36.752 L 31.95,36.752 C 35.767,36.752 36.005,28.289 36,23.741 L 35.999,22.149 C 35.999,21.517 35.492,21.002 34.867,21.002 L 22.5,21.002 C 22.5,23.741 22.5,26.48 22.5,29.22 Z" marker-start="none" marker-end="none"/>
      <path d="M 28.5,36.752 L 28.5,21.752" fill="none"/>
      <path d="M 28.5,28.501 L 35.25,28.501" fill="none"/>
      <path d="M 22.5,21.002 L 6,21.002 C 5.293,21.002 4.5,21.795 4.5,22.502 L 4.5,26.252 C 4.5,27.666 6.086,29.252 7.5,29.252 L 22.5,29.252" fill="none"/>
      <path d="M 9.75,29.252 L 9.75,31.502 L 11.25,33.002 L 15.75,33.002 L 17.25,31.502 L 17.25,29.252" fill="none"/>
      <path d="M 13.5,33.002 L 13.5,35.252 L 12.75,36.002" fill="none"/>
      <path d="M 26.457,37.072 L 26.993,39.752 C 27.689,43.236 31.729,45.982 35.243,46.502 L 51.743,48.002 C 52.525,48.117 54,48.002 53.993,47.252 C 54,46.502 52.608,45.252 51.743,45.002 L 35.38,41.422 C 33.158,40.731 32.002,38.647 31.63,37.063" fill="none"/>
      <path d="M 50.276,44.497 C 50.258,44.187 50.25,43.856 50.25,43.502 L 48.75,26.252 C 48.75,25.693 48.941,24.752 49.5,24.752 C 50.425,24.752 50.768,26.659 51,27.752 L 55.377,44.563 C 55.442,44.947 55.5,45.355 55.5,45.752 C 55.5,46.944 55.183,48.002 54,48.002 C 53.753,48.002 53.522,47.994 53.305,47.977" fill="none"/>
      <path d="M 51,27.752 L 52.865,22.924 C 53.11,22.191 53.25,21.671 53.25,20.637 C 53.25,19.807 52.659,19.502 51,19.502 L 42,19.502 L 48.75,27.752" fill="none"/>
      <path d="M 15.749,21.002 L 15.749,18.752" fill="none"/>
      <path d="M 26.249,21.002 L 26.249,18.752" fill="none"/>
      <path d="M 10.124,15.752 C 10.745,15.752 11.25,15.248 11.25,14.627 C 11.25,14.006 10.745,13.502 10.124,13.502 C 9.503,13.502 8.998,14.006 8.998,14.627 C 8.998,15.248 9.503,15.752 10.124,15.752 Z" marker-start="none" marker-end="none"/>
      <path d="M 37.874,15.752 C 38.495,15.752 39,15.248 39,14.627 C 39,14.006 38.495,13.502 37.874,13.502 C 37.253,13.502 36.748,14.006 36.748,14.627 C 36.748,15.248 37.253,15.752 37.874,15.752 Z" marker-start="none" marker-end="none"/>
     </g>
     <path d="M 0,59.999 L 0,0 L 60.001,0 L 60.001,59.999 L 0,59.999 Z" stroke-linejoin="miter" stroke="none" stroke-width="0.75" marker-start="none" marker-end="none" stroke-miterlimit="79.8403193612775"/>
    </g>
   </g>
  </g>
 </g>
</svg>
